<?xml version="1.0" encoding="UTF-8"?>
<svg id="Layer_1" data-name="Layer 1" xmlns="http://www.w3.org/2000/svg" viewBox="0 0 300 20">
  <defs>
    <style>
      .cls-1 {
        fill: #1c4645;
        stroke-width: 0px;
      }
    </style>
  </defs>
  <path class="cls-1" d="m0,7c6.29-.08,12.61.04,18.87.82,6.28.69,12.44,2.16,18.63,3.08,6.19.99,12.46,1.35,18.73,1.43,9.41.11,18.81-.34,28.06-2.08,9.05-1.85,18.92-3.78,28.12-3.99,12.64-.53,25.4.07,37.78,2.77,12.25,2.73,24.8,3.38,37.32,2.91,12.65-.08,24.79-3.92,37.33-5.04,12.6-.95,25.33-.81,37.81,1.25,6.23,1.08,12.31,2.69,18.54,3.52,6.22.9,12.51,1.21,18.8,1.34-6.29.08-12.61-.04-18.87-.81-6.28-.69-12.44-2.16-18.63-3.08-12.38-1.85-25.07-1.82-37.51-.69-12.52,1.36-24.73,5.18-37.4,5.33-12.63.53-25.4-.06-37.78-2.77-12.25-2.74-24.8-3.38-37.32-2.91-9.45.18-18.65,2.03-27.9,3.82-9.36,1.62-18.91,1.94-28.37,1.69-6.31-.17-12.64-.61-18.86-1.72-6.23-1.08-12.31-2.69-18.54-3.52-6.22-.9-12.51-1.2-18.8-1.34h0Z"/>
</svg>